STARTFONT 2.1
COMMENT $XConsortium: luBIS18.bdf,v 1.7 94/04/02 15:58:34 gildea Exp $
COMMENT  (c) Copyright Bigelow & Holmes 1986, 1985. Lucida is a registered
COMMENT  trademark of Bigelow & Holmes. See LEGAL NOTICE file for terms 
COMMENT  of the license. 
COMMENT GRID 0018 0018 0200 0200
COMMENT  
COMMENT  Translation to ISO8859-2 by Cub Soft;  Petr.Kolar@vslib.cz
COMMENT  
FONT -B&H-Lucida-Bold-I-Normal-Sans-18-180-75-75-P-119-ISO8859-2
SIZE 18 72 72
FONTBOUNDINGBOX 27 19 -2 -3
STARTPROPERTIES 20
COMMENT Begin LogicalFontDescription
FONTNAME_REGISTRY ""
FOUNDRY "B&H"
FAMILY_NAME "Lucida"
WEIGHT_NAME "Bold"
SLANT "I"
SETWIDTH_NAME "Normal"
ADD_STYLE_NAME "Sans"
PIXEL_SIZE 18
POINT_SIZE 180
RESOLUTION_X 75
RESOLUTION_Y 75
SPACING "P"
AVERAGE_WIDTH 119
CHARSET_REGISTRY "ISO8859"
CHARSET_ENCODING "2"
COMMENT END LogicalFontDescription
FONT_ASCENT 16
FONT_DESCENT 3
DEFAULT_CHAR 0
COPYRIGHT "Copyright Bigelow & Holmes 1986, 1985., Copyright 1996 Cub Soft"
FACE_NAME "Lucida Sans Bold Italic"
ENDPROPERTIES
CHARS 191
STARTCHAR space
ENCODING 32
SWIDTH 343 0
DWIDTH 5 0
BBX 1 1 0 0
BITMAP
00
ENDCHAR
STARTCHAR exclam
ENCODING 33
SWIDTH 343 0
DWIDTH 5 0
BBX 5 13 1 0
BITMAP
38
38
38
38
70
70
70
60
60
00
00
e0
e0
ENDCHAR
STARTCHAR quotedbl
ENCODING 34
SWIDTH 530 0
DWIDTH 10 0
BBX 6 4 3 10
BITMAP
cc
cc
cc
88
ENDCHAR
STARTCHAR numbersign
ENCODING 35
SWIDTH 687 0
DWIDTH 13 0
BBX 12 13 1 0
BITMAP
0660
0660
0660
7ff0
7ff0
1980
1980
1980
ffe0
ffe0
6600
6600
6600
ENDCHAR
STARTCHAR dollar
ENCODING 36
SWIDTH 687 0
DWIDTH 13 0
BBX 11 15 2 -1
BITMAP
0100
0fc0
1fe0
3960
3b00
3a00
3e00
1f00
0f80
0b80
1b80
d380
ff00
7e00
1000
ENDCHAR
STARTCHAR percent
ENCODING 37
SWIDTH 908 0
DWIDTH 17 0
BBX 16 13 1 0
BITMAP
3c06
7e0c
ee18
c630
ee60
fcc0
799e
033f
0677
0c63
1877
307e
603c
ENDCHAR
STARTCHAR ampersand
ENCODING 38
SWIDTH 816 0
DWIDTH 15 0
BBX 13 13 2 0
BITMAP
0f80
1fc0
39c0
39c0
3f80
1f00
3e38
7f38
e7b0
e3e0
f3c0
fff0
7c70
ENDCHAR
STARTCHAR apostrophe
ENCODING 39
SWIDTH 265 0
DWIDTH 5 0
BBX 4 4 2 10
BITMAP
70
70
60
c0
ENDCHAR
STARTCHAR parenleft
ENCODING 40
SWIDTH 386 0
DWIDTH 7 0
BBX 7 16 2 -2
BITMAP
0e
1c
38
30
70
70
e0
e0
e0
e0
e0
e0
e0
e0
70
38
ENDCHAR
STARTCHAR parenright
ENCODING 41
SWIDTH 386 0
DWIDTH 7 0
BBX 7 16 0 -2
BITMAP
38
1c
0e
0e
0e
0e
0e
0e
0e
0e
1c
1c
18
38
70
e0
ENDCHAR
STARTCHAR asterisk
ENCODING 42
SWIDTH 464 0
DWIDTH 9 0
BBX 8 7 1 6
BITMAP
18
18
db
e7
18
ec
ec
ENDCHAR
STARTCHAR plus
ENCODING 43
SWIDTH 687 0
DWIDTH 13 0
BBX 12 12 1 0
BITMAP
0300
0300
0300
0600
0600
fff0
fff0
0600
0600
0c00
0c00
0c00
ENDCHAR
STARTCHAR comma
ENCODING 44
SWIDTH 343 0
DWIDTH 5 0
BBX 4 4 0 -2
BITMAP
70
70
60
c0
ENDCHAR
STARTCHAR minus
ENCODING 45
SWIDTH 687 0
DWIDTH 13 0
BBX 11 2 2 5
BITMAP
ffe0
ffe0
ENDCHAR
STARTCHAR period
ENCODING 46
SWIDTH 343 0
DWIDTH 5 0
BBX 3 2 1 0
BITMAP
e0
e0
ENDCHAR
STARTCHAR slash
ENCODING 47
SWIDTH 596 0
DWIDTH 11 0
BBX 11 16 0 -2
BITMAP
0060
00e0
01c0
0180
0380
0700
0600
0e00
0c00
1c00
3800
3000
7000
6000
e000
c000
ENDCHAR
STARTCHAR zero
ENCODING 48
SWIDTH 687 0
DWIDTH 13 0
BBX 11 13 2 0
BITMAP
0780
1fc0
39e0
70e0
70e0
e0e0
e0e0
e0e0
e1c0
e1c0
f380
7f00
3c00
ENDCHAR
STARTCHAR one
ENCODING 49
SWIDTH 687 0
DWIDTH 13 0
BBX 6 13 4 0
BITMAP
1c
fc
fc
1c
1c
38
38
38
38
70
70
70
70
ENDCHAR
STARTCHAR two
ENCODING 50
SWIDTH 687 0
DWIDTH 13 0
BBX 10 13 2 0
BITMAP
1f80
3fc0
31c0
01c0
03c0
0780
0f00
1e00
3800
7000
ff80
ff80
ff80
ENDCHAR
STARTCHAR three
ENCODING 51
SWIDTH 687 0
DWIDTH 13 0
BBX 10 13 2 0
BITMAP
1f80
3fc0
31c0
01c0
0380
1f00
1e00
0700
0380
0380
c780
ff00
7c00
ENDCHAR
STARTCHAR four
ENCODING 52
SWIDTH 687 0
DWIDTH 13 0
BBX 10 13 2 0
BITMAP
01c0
03c0
07c0
0dc0
19c0
3380
6380
ffc0
ffc0
0700
0700
0700
0700
ENDCHAR
STARTCHAR five
ENCODING 53
SWIDTH 687 0
DWIDTH 13 0
BBX 11 13 2 0
BITMAP
1fe0
1fe0
1fe0
3000
3000
3e00
3f00
0780
0380
0380
c780
ff00
7c00
ENDCHAR
STARTCHAR six
ENCODING 54
SWIDTH 687 0
DWIDTH 13 0
BBX 11 13 2 0
BITMAP
07c0
1fe0
3c60
7000
7000
ef00
ff80
f1c0
e1c0
e1c0
e380
7f80
3e00
ENDCHAR
STARTCHAR seven
ENCODING 55
SWIDTH 687 0
DWIDTH 13 0
BBX 10 13 3 0
BITMAP
7fc0
7fc0
7fc0
0180
0300
0600
0c00
1c00
3800
7000
7000
e000
e000
ENDCHAR
STARTCHAR eight
ENCODING 56
SWIDTH 687 0
DWIDTH 13 0
BBX 11 13 2 0
BITMAP
07c0
1fe0
38e0
38e0
3dc0
1f00
0f80
3f80
73c0
e1c0
f1c0
ff80
7e00
ENDCHAR
STARTCHAR nine
ENCODING 57
SWIDTH 687 0
DWIDTH 13 0
BBX 10 13 2 0
BITMAP
1f00
7f80
71c0
e1c0
e1c0
e3c0
7fc0
3dc0
0380
0380
c700
fe00
7800
ENDCHAR
STARTCHAR colon
ENCODING 58
SWIDTH 343 0
DWIDTH 5 0
BBX 5 10 1 0
BITMAP
38
38
00
00
00
00
00
00
e0
e0
ENDCHAR
STARTCHAR semicolon
ENCODING 59
SWIDTH 343 0
DWIDTH 5 0
BBX 6 12 0 -2
BITMAP
1c
1c
00
00
00
00
00
00
70
70
60
c0
ENDCHAR
STARTCHAR less
ENCODING 60
SWIDTH 687 0
DWIDTH 13 0
BBX 11 9 2 2
BITMAP
00e0
03c0
0f00
3c00
f000
f000
3c00
0f00
0380
ENDCHAR
STARTCHAR equal
ENCODING 61
SWIDTH 687 0
DWIDTH 13 0
BBX 12 6 1 3
BITMAP
7ff0
7ff0
0000
0000
ffe0
ffe0
ENDCHAR
STARTCHAR greater
ENCODING 62
SWIDTH 687 0
DWIDTH 13 0
BBX 11 9 1 2
BITMAP
3800
1e00
0780
01e0
01e0
0780
1e00
7800
e000
ENDCHAR
STARTCHAR question
ENCODING 63
SWIDTH 539 0
DWIDTH 10 0
BBX 8 13 2 0
BITMAP
7e
ff
c7
07
0e
1c
38
70
60
00
00
e0
e0
ENDCHAR
STARTCHAR at
ENCODING 64
SWIDTH 833 0
DWIDTH 16 0
BBX 16 13 1 0
BITMAP
07f0
1ffe
3806
71f3
67f3
c673
ce63
cee6
cffc
c678
6000
7fc0
0fc0
ENDCHAR
STARTCHAR A
ENCODING 65
SWIDTH 771 0
DWIDTH 14 0
BBX 12 13 1 0
BITMAP
01c0
03c0
03c0
06e0
0ce0
0ce0
18e0
18e0
3ff0
7ff0
6070
e070
e070
ENDCHAR
STARTCHAR B
ENCODING 66
SWIDTH 660 0
DWIDTH 13 0
BBX 11 13 2 0
BITMAP
3fc0
3fe0
38e0
38e0
71c0
7f80
7f00
7380
e1c0
e1c0
e3c0
ff80
fe00
ENDCHAR
STARTCHAR C
ENCODING 67
SWIDTH 737 0
DWIDTH 14 0
BBX 13 13 2 0
BITMAP
07e0
1ff8
3c38
7000
7000
e000
e000
e000
e000
e000
7060
7fe0
1f80
ENDCHAR
STARTCHAR D
ENCODING 68
SWIDTH 822 0
DWIDTH 15 0
BBX 13 13 2 0
BITMAP
3fc0
3ff0
3870
3838
7038
7038
7038
7038
e070
e070
e1e0
ffc0
ff00
ENDCHAR
STARTCHAR E
ENCODING 69
SWIDTH 642 0
DWIDTH 12 0
BBX 10 13 2 0
BITMAP
3fc0
3fc0
3800
3800
7000
7f00
7f00
7000
e000
e000
e000
ff00
ff00
ENDCHAR
STARTCHAR F
ENCODING 70
SWIDTH 614 0
DWIDTH 12 0
BBX 11 13 2 0
BITMAP
3fe0
3fe0
3800
3800
7000
7f80
7f80
7000
7000
e000
e000
e000
e000
ENDCHAR
STARTCHAR G
ENCODING 71
SWIDTH 755 0
DWIDTH 14 0
BBX 13 13 2 0
BITMAP
07e0
1ff8
3c38
7000
7000
e000
e000
e070
e070
e070
70e0
7fe0
1fe0
ENDCHAR
STARTCHAR H
ENCODING 72
SWIDTH 813 0
DWIDTH 15 0
BBX 13 13 2 0
BITMAP
3838
3838
3838
3838
7070
7ff0
7ff0
7070
e0e0
e0e0
e0e0
e0e0
e0e0
ENDCHAR
STARTCHAR I
ENCODING 73
SWIDTH 361 0
DWIDTH 7 0
BBX 5 13 2 0
BITMAP
38
38
38
38
70
70
70
70
e0
e0
e0
e0
e0
ENDCHAR
STARTCHAR J
ENCODING 74
SWIDTH 502 0
DWIDTH 9 0
BBX 10 15 -1 -2
BITMAP
01c0
01c0
01c0
01c0
0380
0380
0380
0380
0380
0700
0700
0700
ce00
fe00
7800
ENDCHAR
STARTCHAR K
ENCODING 75
SWIDTH 753 0
DWIDTH 14 0
BBX 12 13 2 0
BITMAP
3870
38e0
39c0
3980
7300
7600
7c00
7e00
ef00
e780
e3c0
e1e0
e0e0
ENDCHAR
STARTCHAR L
ENCODING 76
SWIDTH 623 0
DWIDTH 11 0
BBX 9 13 2 0
BITMAP
3800
3800
3800
3800
7000
7000
7000
7000
e000
e000
e000
ff80
ff80
ENDCHAR
STARTCHAR M
ENCODING 77
SWIDTH 940 0
DWIDTH 18 0
BBX 16 13 2 0
BITMAP
3e0f
3e1f
3e1f
3737
3766
676e
67ce
678e
678e
c71c
c71c
c01c
c01c
ENDCHAR
STARTCHAR N
ENCODING 78
SWIDTH 789 0
DWIDTH 15 0
BBX 13 13 2 0
BITMAP
3818
3c18
3c18
3e18
3e18
6730
6730
63b0
63f0
c1e0
c1e0
c0e0
c0e0
ENDCHAR
STARTCHAR O
ENCODING 79
SWIDTH 855 0
DWIDTH 16 0
BBX 14 13 2 0
BITMAP
07e0
1ff8
3c38
701c
701c
e01c
e01c
e01c
e038
e038
70f0
7fe0
1f80
ENDCHAR
STARTCHAR P
ENCODING 80
SWIDTH 645 0
DWIDTH 13 0
BBX 11 13 2 0
BITMAP
3fc0
3fe0
38e0
38e0
70e0
71c0
7f80
7e00
e000
e000
e000
e000
e000
ENDCHAR
STARTCHAR Q
ENCODING 81
SWIDTH 855 0
DWIDTH 15 0
BBX 14 16 1 -3
BITMAP
07e0
1ff8
3c38
701c
701c
e01c
e01c
e01c
e038
e038
70f0
7fe0
1f80
01e0
00fc
0038
ENDCHAR
STARTCHAR R
ENCODING 82
SWIDTH 708 0
DWIDTH 13 0
BBX 11 13 2 0
BITMAP
3fc0
3fe0
38e0
38e0
71c0
7f80
7e00
7700
e700
e380
e380
e1c0
e1c0
ENDCHAR
STARTCHAR S
ENCODING 83
SWIDTH 639 0
DWIDTH 12 0
BBX 11 13 1 0
BITMAP
07c0
1fe0
3c60
3800
3c00
1e00
0f00
0780
0380
0380
c780
ff00
7c00
ENDCHAR
STARTCHAR T
ENCODING 84
SWIDTH 747 0
DWIDTH 14 0
BBX 13 13 2 0
BITMAP
fff8
fff8
0700
0700
0e00
0e00
0e00
0e00
1c00
1c00
1c00
1c00
1c00
ENDCHAR
STARTCHAR U
ENCODING 85
SWIDTH 759 0
DWIDTH 14 0
BBX 13 13 2 0
BITMAP
3818
3818
3818
3818
7030
7030
7030
7060
e060
e0e0
f1c0
7f80
3e00
ENDCHAR
STARTCHAR V
ENCODING 86
SWIDTH 765 0
DWIDTH 14 0
BBX 11 13 4 0
BITMAP
e0e0
e0e0
e0c0
e1c0
e180
e380
7300
7700
7600
7600
7c00
3800
3800
ENDCHAR
STARTCHAR W
ENCODING 87
SWIDTH 991 0
DWIDTH 18 0
BBX 16 13 3 0
BITMAP
e1c7
e1c7
e3c7
e3c6
e7ce
e7cc
edd8
e9d8
f9f0
f1e0
f1e0
e1c0
e1c0
ENDCHAR
STARTCHAR X
ENCODING 88
SWIDTH 696 0
DWIDTH 13 0
BBX 13 13 1 0
BITMAP
1c38
1c38
1c70
0e60
0ec0
0f80
0700
0f00
1b80
3380
71c0
e1c0
e1c0
ENDCHAR
STARTCHAR Y
ENCODING 89
SWIDTH 681 0
DWIDTH 12 0
BBX 11 13 3 0
BITMAP
e0e0
e0e0
e1c0
f380
7300
7600
3c00
3800
3800
7000
7000
7000
7000
ENDCHAR
STARTCHAR Z
ENCODING 90
SWIDTH 687 0
DWIDTH 13 0
BBX 12 13 1 0
BITMAP
3ff0
3ff0
00f0
01e0
03c0
0780
0f00
1e00
3c00
7800
f000
ffc0
ffc0
ENDCHAR
STARTCHAR bracketleft
ENCODING 91
SWIDTH 386 0
DWIDTH 7 0
BBX 8 16 1 -2
BITMAP
1f
1f
1c
1c
38
38
38
38
70
70
70
70
e0
e0
f8
f8
ENDCHAR
STARTCHAR backslash
ENCODING 92
SWIDTH 566 0
DWIDTH 10 0
BBX 9 16 1 -2
BITMAP
e000
e000
7000
7000
3800
3800
1800
1c00
1c00
0e00
0e00
0600
0700
0700
0380
0380
ENDCHAR
STARTCHAR bracketright
ENCODING 93
SWIDTH 386 0
DWIDTH 7 0
BBX 8 16 0 -2
BITMAP
1f
1f
07
07
0e
0e
0e
0e
1c
1c
1c
1c
38
38
f8
f8
ENDCHAR
STARTCHAR asciicircum
ENCODING 94
SWIDTH 687 0
DWIDTH 13 0
BBX 9 10 2 2
BITMAP
0180
0380
0780
0d80
1980
3180
6180
6180
c180
c180
ENDCHAR
STARTCHAR underscore
ENCODING 95
SWIDTH 500 0
DWIDTH 14 0
BBX 12 2 1 -2
BITMAP
fff0
fff0
ENDCHAR
STARTCHAR grave
ENCODING 96
SWIDTH 663 0
DWIDTH 12 0
BBX 5 2 5 11
BITMAP
f0
38
ENDCHAR
STARTCHAR a
ENCODING 97
SWIDTH 681 0
DWIDTH 13 0
BBX 12 10 1 0
BITMAP
07f0
1ff0
3870
70e0
70e0
e1e0
e3c0
e7c0
fdc0
79c0
ENDCHAR
STARTCHAR b
ENCODING 98
SWIDTH 681 0
DWIDTH 13 0
BBX 12 14 1 0
BITMAP
1c00
1c00
1c00
1c00
39e0
3bf0
3e70
7c70
7870
70e0
70e0
e1c0
ff80
fe00
ENDCHAR
STARTCHAR c
ENCODING 99
SWIDTH 548 0
DWIDTH 11 0
BBX 10 10 1 0
BITMAP
0780
1fc0
38c0
7000
7000
e000
e000
e180
ff80
7e00
ENDCHAR
STARTCHAR d
ENCODING 100
SWIDTH 681 0
DWIDTH 13 0
BBX 13 14 1 0
BITMAP
0038
0038
0038
0038
07f0
1ff0
3870
70e0
70e0
e1e0
e3c0
e7c0
fdc0
79c0
ENDCHAR
STARTCHAR e
ENCODING 101
SWIDTH 612 0
DWIDTH 11 0
BBX 10 10 1 0
BITMAP
0780
1fc0
39c0
71c0
7f80
fe00
e000
e180
ff80
7e00
ENDCHAR
STARTCHAR f
ENCODING 102
SWIDTH 464 0
DWIDTH 10 0
BBX 12 17 1 -3
BITMAP
03e0
07f0
0e30
0e00
3fc0
3fc0
1c00
1c00
3800
3800
3800
7000
7000
7000
e000
e000
e000
ENDCHAR
STARTCHAR g
ENCODING 103
SWIDTH 674 0
DWIDTH 13 0
BBX 13 13 0 -3
BITMAP
03f8
0ff8
1c38
3870
3870
70f0
71f0
7f60
3ce0
00e0
e1c0
ffc0
3f00
ENDCHAR
STARTCHAR h
ENCODING 104
SWIDTH 675 0
DWIDTH 13 0
BBX 12 14 1 0
BITMAP
1c00
1c00
1c00
1c00
39e0
3bf0
3e70
7c70
78e0
70e0
70e0
e1c0
e1c0
e1c0
ENDCHAR
STARTCHAR i
ENCODING 105
SWIDTH 343 0
DWIDTH 6 0
BBX 7 14 1 0
BITMAP
0e
1c
00
00
38
38
38
70
70
70
70
e0
e0
e0
ENDCHAR
STARTCHAR j
ENCODING 106
SWIDTH 407 0
DWIDTH 7 0
BBX 11 17 -2 -3
BITMAP
00e0
01c0
0000
0000
0380
0380
0380
0700
0700
0700
0700
0e00
0e00
0e00
dc00
fc00
7000
ENDCHAR
STARTCHAR k
ENCODING 107
SWIDTH 666 0
DWIDTH 12 0
BBX 11 14 1 0
BITMAP
1c00
1c00
1c00
1c00
38e0
38e0
39c0
7300
7e00
7e00
7700
e780
e3c0
e1c0
ENDCHAR
STARTCHAR l
ENCODING 108
SWIDTH 343 0
DWIDTH 6 0
BBX 6 14 1 0
BITMAP
1c
1c
1c
1c
38
38
38
70
70
70
70
e0
e0
e0
ENDCHAR
STARTCHAR m
ENCODING 109
SWIDTH 991 0
DWIDTH 18 0
BBX 17 10 1 0
BITMAP
39c700
3bef80
3efb80
7cf380
79e700
71c700
71c700
e38e00
e38e00
e38e00
ENDCHAR
STARTCHAR n
ENCODING 110
SWIDTH 675 0
DWIDTH 13 0
BBX 12 10 1 0
BITMAP
39e0
3bf0
3e70
3c70
78e0
70e0
70e0
e1c0
e1c0
e1c0
ENDCHAR
STARTCHAR o
ENCODING 111
SWIDTH 663 0
DWIDTH 12 0
BBX 11 10 1 0
BITMAP
07c0
1fe0
38e0
70e0
70e0
e1c0
e1c0
e380
ff00
7c00
ENDCHAR
STARTCHAR p
ENCODING 112
SWIDTH 681 0
DWIDTH 13 0
BBX 13 13 0 -3
BITMAP
1cf0
1df8
1f38
1e38
3c38
3870
3870
70e0
7fc0
7f00
e000
e000
e000
ENDCHAR
STARTCHAR q
ENCODING 113
SWIDTH 681 0
DWIDTH 13 0
BBX 12 13 1 -3
BITMAP
07f0
1ff0
3870
70e0
70e0
e1e0
e3e0
e6c0
fdc0
79c0
0380
0380
0380
ENDCHAR
STARTCHAR r
ENCODING 114
SWIDTH 542 0
DWIDTH 10 0
BBX 9 10 1 0
BITMAP
3980
3b80
3f80
7c00
7800
7000
7000
e000
e000
e000
ENDCHAR
STARTCHAR s
ENCODING 115
SWIDTH 527 0
DWIDTH 11 0
BBX 10 10 1 0
BITMAP
1f80
3fc0
70c0
7800
3e00
1f00
0780
c380
ff00
7e00
ENDCHAR
STARTCHAR t
ENCODING 116
SWIDTH 437 0
DWIDTH 8 0
BBX 7 12 2 0
BITMAP
18
38
fe
fe
70
70
70
e0
e0
e0
f8
78
ENDCHAR
STARTCHAR u
ENCODING 117
SWIDTH 675 0
DWIDTH 13 0
BBX 12 10 1 0
BITMAP
3870
3870
3870
70e0
70e0
71e0
e3c0
e7c0
fdc0
79c0
ENDCHAR
STARTCHAR v
ENCODING 118
SWIDTH 630 0
DWIDTH 12 0
BBX 10 10 3 0
BITMAP
e1c0
e1c0
e380
e300
e700
e600
ec00
f800
f000
e000
ENDCHAR
STARTCHAR w
ENCODING 119
SWIDTH 878 0
DWIDTH 16 0
BBX 15 10 2 0
BITMAP
e00e
e38e
e38e
e79c
e798
efb0
fbe0
f3c0
e380
c300
ENDCHAR
STARTCHAR x
ENCODING 120
SWIDTH 563 0
DWIDTH 11 0
BBX 11 10 0 0
BITMAP
1ce0
1ce0
1cc0
0f80
0f00
1f00
3700
6380
e380
e380
ENDCHAR
STARTCHAR y
ENCODING 121
SWIDTH 633 0
DWIDTH 12 0
BBX 13 13 0 -3
BITMAP
1c38
1c38
1c70
1c60
1ce0
1cc0
1d80
1f00
1e00
1c00
3800
f000
e000
ENDCHAR
STARTCHAR z
ENCODING 122
SWIDTH 630 0
DWIDTH 12 0
BBX 11 10 1 0
BITMAP
7fe0
7fe0
03c0
0780
0f00
1e00
3c00
7800
ffc0
ffc0
ENDCHAR
STARTCHAR braceleft
ENCODING 123
SWIDTH 386 0
DWIDTH 7 0
BBX 8 16 1 -2
BITMAP
07
0f
1c
1c
1c
1c
18
f0
e0
30
70
70
e0
e0
f0
70
ENDCHAR
STARTCHAR bar
ENCODING 124
SWIDTH 259 0
DWIDTH 7 0
BBX 5 16 2 -2
BITMAP
38
38
38
38
30
70
70
70
70
70
70
60
e0
e0
e0
e0
ENDCHAR
STARTCHAR braceright
ENCODING 125
SWIDTH 386 0
DWIDTH 7 0
BBX 8 16 0 -2
BITMAP
0e
0f
07
07
0e
0e
0c
07
0f
18
38
38
38
38
f0
e0
ENDCHAR
STARTCHAR asciitilde
ENCODING 126
SWIDTH 687 0
DWIDTH 13 0
BBX 10 3 2 5
BITMAP
78c0
ffc0
c780
ENDCHAR
STARTCHAR nobreakspace
ENCODING 160
SWIDTH 343 0
DWIDTH 5 0
BBX 1 1 0 0
BITMAP
00
ENDCHAR
STARTCHAR Aogonek
ENCODING 161
SWIDTH 771 0
DWIDTH 14 0
BBX 12 16 1 -3
BITMAP
01c0
03c0
03c0
06e0
0ce0
0ce0
18e0
18e0
3ff0
7ff0
6070
e070
e070
0e00
1c00
0f00
ENDCHAR
STARTCHAR breve
ENCODING 162
SWIDTH 663 0
DWIDTH 12 0
BBX 5 3 5 11
BITMAP
88
f8
70
ENDCHAR
STARTCHAR Lstroke
ENCODING 163
SWIDTH 623 0
DWIDTH 12 0
BBX 11 13 1 0
BITMAP
0e00
0e00
0e00
0e00
1d80
1f80
fc00
d800
3800
3800
3800
3fe0
3fe0
ENDCHAR
STARTCHAR currency
ENCODING 164
SWIDTH 687 0
DWIDTH 13 0
BBX 14 12 1 0
BITMAP
300c
1818
0fe0
1ff0
1c70
3870
3870
38e0
3fe0
1fc0
6060
c030
ENDCHAR
STARTCHAR Lcaron
ENCODING 165
SWIDTH 666 0
DWIDTH 12 0
BBX 10 14 2 0
BITMAP
01c0
39c0
3980
3b00
3800
7000
7000
7000
7000
e000
e000
e000
ff80
ff80
ENDCHAR
STARTCHAR Sacute
ENCODING 166
SWIDTH 639 0
DWIDTH 12 0
BBX 11 16 1 0
BITMAP
03c0
0700
0000
07c0
1fe0
3c60
3800
3c00
1e00
0f00
0780
0380
0380
c780
ff00
7c00
ENDCHAR
STARTCHAR section
ENCODING 167
SWIDTH 687 0
DWIDTH 13 0
BBX 10 15 2 -2
BITMAP
0780
1fc0
38c0
3800
3c00
6e00
6700
7380
3980
1d80
0f00
0700
c700
fe00
7800
ENDCHAR
STARTCHAR diaeresis
ENCODING 168
SWIDTH 663 0
DWIDTH 12 0
BBX 6 2 4 11
BITMAP
cc
cc
ENDCHAR
STARTCHAR Scaron
ENCODING 169
SWIDTH 639 0
DWIDTH 12 0
BBX 11 16 1 0
BITMAP
0d80
0700
0000
07c0
1fe0
3c60
3800
3c00
1e00
0f00
0780
0380
0380
c780
ff00
7c00
ENDCHAR
STARTCHAR Scedilla
ENCODING 170
SWIDTH 639 0
DWIDTH 12 0
BBX 11 16 1 -3
BITMAP
07c0
1fe0
3c60
3800
3c00
1e00
0f00
0780
0380
0380
c780
ff00
7c00
0e00
0700
1e00
ENDCHAR
STARTCHAR Tcaron
ENCODING 171
SWIDTH 747 0
DWIDTH 14 0
BBX 13 16 2 0
BITMAP
0d80
0700
0000
fff8
fff8
0700
0700
0e00
0e00
0e00
0e00
1c00
1c00
1c00
1c00
1c00
ENDCHAR
STARTCHAR Zacute
ENCODING 172
SWIDTH 687 0
DWIDTH 13 0
BBX 12 16 1 0
BITMAP
01e0
0380
0000
3ff0
3ff0
00f0
01e0
03c0
0780
0f00
1e00
3c00
7800
f000
ffc0
ffc0
ENDCHAR
STARTCHAR hyphen
ENCODING 173
SWIDTH 289 0
DWIDTH 6 0
BBX 5 2 1 4
BITMAP
f8
f8
ENDCHAR
STARTCHAR Zcaron
ENCODING 174
SWIDTH 687 0
DWIDTH 13 0
BBX 12 16 1 0
BITMAP
06c0
0380
0000
3ff0
3ff0
00f0
01e0
03c0
0780
0f00
1e00
3c00
7800
f000
ffc0
ffc0
ENDCHAR
STARTCHAR Zabovedot
ENCODING 175
SWIDTH 687 0
DWIDTH 13 0
BBX 12 16 1 0
BITMAP
0380
0380
0000
3ff0
3ff0
00f0
01e0
03c0
0780
0f00
1e00
3c00
7800
f000
ffc0
ffc0
ENDCHAR
STARTCHAR degree
ENCODING 176
SWIDTH 241 0
DWIDTH 5 0
BBX 5 3 1 10
BITMAP
70
d8
70
ENDCHAR
STARTCHAR aogonek
ENCODING 177
SWIDTH 681 0
DWIDTH 13 0
BBX 12 13 1 -3
BITMAP
07f0
1ff0
3870
70e0
70e0
e1e0
e3c0
e7c0
fdc0
79c0
0e00
1c00
0f00
ENDCHAR
STARTCHAR ogonek
ENCODING 178
SWIDTH 663 0
DWIDTH 12 0
BBX 5 3 2 -3
BITMAP
70
e0
78
ENDCHAR
STARTCHAR lstroke
ENCODING 179
SWIDTH 343 0
DWIDTH 7 0
BBX 8 14 0 0
BITMAP
0e
0e
0e
0e
1c
1f
ff
f8
38
38
38
70
70
70
ENDCHAR
STARTCHAR acute
ENCODING 180
SWIDTH 663 0
DWIDTH 12 0
BBX 5 2 6 11
BITMAP
78
e0
ENDCHAR
STARTCHAR lcaron
ENCODING 181
SWIDTH 611 0
DWIDTH 11 0
BBX 11 15 1 0
BITMAP
00e0
1ce0
1cc0
1d80
1c00
3800
3800
3800
7000
7000
7000
7000
e000
e000
e000
ENDCHAR
STARTCHAR sacute
ENCODING 182
SWIDTH 527 0
DWIDTH 11 0
BBX 10 13 1 0
BITMAP
03c0
0700
0000
1f80
3fc0
70c0
7800
3e00
1f00
0780
c380
ff00
7e00
ENDCHAR
STARTCHAR caron
ENCODING 183
SWIDTH 663 0
DWIDTH 12 0
BBX 5 2 5 11
BITMAP
d8
70
ENDCHAR
STARTCHAR cedilla
ENCODING 184
SWIDTH 663 0
DWIDTH 12 0
BBX 5 3 2 -3
BITMAP
70
38
f0
ENDCHAR
STARTCHAR scaron
ENCODING 185
SWIDTH 527 0
DWIDTH 11 0
BBX 10 13 1 0
BITMAP
0d80
0700
0000
1f80
3fc0
70c0
7800
3e00
1f00
0780
c380
ff00
7e00
ENDCHAR
STARTCHAR scedilla
ENCODING 186
SWIDTH 527 0
DWIDTH 11 0
BBX 10 13 1 -3
BITMAP
1f80
3fc0
70c0
7800
3e00
1f00
0780
c380
ff00
7e00
1c00
0e00
3c00
ENDCHAR
STARTCHAR tcaron
ENCODING 187
SWIDTH 611 0
DWIDTH 11 0
BBX 10 15 2 0
BITMAP
01c0
01c0
0180
1b00
3800
fe00
fe00
7000
7000
7000
e000
e000
e000
f800
7800
ENDCHAR
STARTCHAR zacute
ENCODING 188
SWIDTH 630 0
DWIDTH 12 0
BBX 11 13 1 0
BITMAP
03c0
0700
0000
7fe0
7fe0
03c0
0780
0f00
1e00
3c00
7800
ffc0
ffc0
ENDCHAR
STARTCHAR doubleacute
ENCODING 189
SWIDTH 663 0
DWIDTH 12 0
BBX 5 3 6 11
BITMAP
48
d8
90
ENDCHAR
STARTCHAR zcaron
ENCODING 190
SWIDTH 630 0
DWIDTH 12 0
BBX 11 13 1 0
BITMAP
0d80
0700
0000
7fe0
7fe0
03c0
0780
0f00
1e00
3c00
7800
ffc0
ffc0
ENDCHAR
STARTCHAR zabovedot
ENCODING 191
SWIDTH 630 0
DWIDTH 12 0
BBX 11 13 1 0
BITMAP
0700
0700
0000
7fe0
7fe0
03c0
0780
0f00
1e00
3c00
7800
ffc0
ffc0
ENDCHAR
STARTCHAR Racute
ENCODING 192
SWIDTH 708 0
DWIDTH 13 0
BBX 11 16 2 0
BITMAP
03c0
0700
0000
3fc0
3fe0
38e0
38e0
71c0
7f80
7e00
7700
e700
e380
e380
e1c0
e1c0
ENDCHAR
STARTCHAR Aacute
ENCODING 193
SWIDTH 771 0
DWIDTH 14 0
BBX 12 16 1 0
BITMAP
01e0
0380
0000
01c0
03c0
03c0
06e0
0ce0
0ce0
18e0
18e0
3ff0
7ff0
6070
e070
e070
ENDCHAR
STARTCHAR Acircumflex
ENCODING 194
SWIDTH 771 0
DWIDTH 14 0
BBX 12 16 1 0
BITMAP
01c0
0360
0000
01c0
03c0
03c0
06e0
0ce0
0ce0
18e0
18e0
3ff0
7ff0
6070
e070
e070
ENDCHAR
STARTCHAR Abreve
ENCODING 195
SWIDTH 771 0
DWIDTH 14 0
BBX 12 17 1 0
BITMAP
0220
03e0
01c0
0000
01c0
03c0
03c0
06e0
0ce0
0ce0
18e0
18e0
3ff0
7ff0
6070
e070
e070
ENDCHAR
STARTCHAR Adiaeresis
ENCODING 196
SWIDTH 771 0
DWIDTH 14 0
BBX 12 16 1 0
BITMAP
0660
0660
0000
01c0
03c0
03c0
06e0
0ce0
0ce0
18e0
18e0
3ff0
7ff0
6070
e070
e070
ENDCHAR
STARTCHAR Lacute
ENCODING 197
SWIDTH 623 0
DWIDTH 11 0
BBX 9 16 2 0
BITMAP
1e00
3800
0000
3800
3800
3800
3800
7000
7000
7000
7000
e000
e000
e000
ff80
ff80
ENDCHAR
STARTCHAR Cacute
ENCODING 198
SWIDTH 737 0
DWIDTH 14 0
BBX 13 16 2 0
BITMAP
01e0
0380
0000
07e0
1ff8
3c38
7000
7000
e000
e000
e000
e000
e000
7060
7fe0
1f80
ENDCHAR
STARTCHAR Ccedilla
ENCODING 199
SWIDTH 737 0
DWIDTH 14 0
BBX 13 16 2 -3
BITMAP
07e0
1ff8
3c38
7000
7000
e000
e000
e000
e000
e000
7060
7fe0
1f80
1c00
0e00
3c00
ENDCHAR
STARTCHAR Ccaron
ENCODING 200
SWIDTH 737 0
DWIDTH 14 0
BBX 13 16 2 0
BITMAP
06c0
0380
0000
07e0
1ff8
3c38
7000
7000
e000
e000
e000
e000
e000
7060
7fe0
1f80
ENDCHAR
STARTCHAR Eacute
ENCODING 201
SWIDTH 642 0
DWIDTH 12 0
BBX 10 16 2 0
BITMAP
0780
0e00
0000
3fc0
3fc0
3800
3800
7000
7f00
7f00
7000
e000
e000
e000
ff00
ff00
ENDCHAR
STARTCHAR Eogonek
ENCODING 202
SWIDTH 642 0
DWIDTH 12 0
BBX 10 16 2 -3
BITMAP
3fc0
3fc0
3800
3800
7000
7f00
7f00
7000
e000
e000
e000
ff00
ff00
1c00
3800
1e00
ENDCHAR
STARTCHAR Ediaeresis
ENCODING 203
SWIDTH 642 0
DWIDTH 12 0
BBX 10 16 2 0
BITMAP
1980
1980
0000
3fc0
3fc0
3800
3800
7000
7f00
7f00
7000
e000
e000
e000
ff00
ff00
ENDCHAR
STARTCHAR Ecaron
ENCODING 204
SWIDTH 642 0
DWIDTH 12 0
BBX 10 16 2 0
BITMAP
0d80
0700
0000
3fc0
3fc0
3800
3800
7000
7f00
7f00
7000
e000
e000
e000
ff00
ff00
ENDCHAR
STARTCHAR Iacute
ENCODING 205
SWIDTH 361 0
DWIDTH 7 0
BBX 7 16 2 0
BITMAP
1e
38
00
38
38
38
38
70
70
70
70
e0
e0
e0
e0
e0
ENDCHAR
STARTCHAR Icircumflex
ENCODING 206
SWIDTH 361 0
DWIDTH 7 0
BBX 6 16 2 0
BITMAP
38
6c
00
38
38
38
38
70
70
70
70
e0
e0
e0
e0
e0
ENDCHAR
STARTCHAR Dcaron
ENCODING 207
SWIDTH 822 0
DWIDTH 15 0
BBX 13 16 2 0
BITMAP
06c0
0380
0000
3fc0
3ff0
3870
3838
7038
7038
7038
7038
e070
e070
e1e0
ffc0
ff00
ENDCHAR
STARTCHAR Dstroke
ENCODING 208
SWIDTH 822 0
DWIDTH 15 0
BBX 14 13 1 0
BITMAP
1fe0
1ff8
1c38
1c1c
381c
ff9c
ff9c
381c
7038
7038
70f0
7fe0
7f80
ENDCHAR
STARTCHAR Nacute
ENCODING 209
SWIDTH 789 0
DWIDTH 15 0
BBX 13 16 2 0
BITMAP
01e0
0380
0000
3818
3c18
3c18
3e18
3e18
6730
6730
63b0
63f0
c1e0
c1e0
c0e0
c0e0
ENDCHAR
STARTCHAR Ncaron
ENCODING 210
SWIDTH 789 0
DWIDTH 15 0
BBX 13 16 2 0
BITMAP
06c0
0380
0000
3818
3c18
3c18
3e18
3e18
6730
6730
63b0
63f0
c1e0
c1e0
c0e0
c0e0
ENDCHAR
STARTCHAR Oacute
ENCODING 211
SWIDTH 855 0
DWIDTH 16 0
BBX 14 16 2 0
BITMAP
01e0
0380
0000
07e0
1ff8
3c38
701c
701c
e01c
e01c
e01c
e038
e038
70f0
7fe0
1f80
ENDCHAR
STARTCHAR Ocircumflex
ENCODING 212
SWIDTH 855 0
DWIDTH 16 0
BBX 14 16 2 0
BITMAP
01c0
0360
0000
07e0
1ff8
3c38
701c
701c
e01c
e01c
e01c
e038
e038
70f0
7fe0
1f80
ENDCHAR
STARTCHAR Odoubleacute
ENCODING 213
SWIDTH 855 0
DWIDTH 16 0
BBX 14 17 2 0
BITMAP
0120
0360
0240
0000
07e0
1ff8
3c38
701c
701c
e01c
e01c
e01c
e038
e038
70f0
7fe0
1f80
ENDCHAR
STARTCHAR Odiaeresis
ENCODING 214
SWIDTH 855 0
DWIDTH 16 0
BBX 14 16 2 0
BITMAP
0660
0660
0000
07e0
1ff8
3c38
701c
701c
e01c
e01c
e01c
e038
e038
70f0
7fe0
1f80
ENDCHAR
STARTCHAR multiply
ENCODING 215
SWIDTH 687 0
DWIDTH 13 0
BBX 10 10 2 1
BITMAP
30c0
30c0
1980
1f00
0e00
1e00
3700
6300
c180
c180
ENDCHAR
STARTCHAR Rcaron
ENCODING 216
SWIDTH 708 0
DWIDTH 13 0
BBX 11 16 2 0
BITMAP
0d80
0700
0000
3fc0
3fe0
38e0
38e0
71c0
7f80
7e00
7700
e700
e380
e380
e1c0
e1c0
ENDCHAR
STARTCHAR Uring
ENCODING 217
SWIDTH 759 0
DWIDTH 14 0
BBX 13 17 2 0
BITMAP
0380
06c0
0380
0000
3818
3818
3818
3818
7030
7030
7030
7060
e060
e0e0
f1c0
7f80
3e00
ENDCHAR
STARTCHAR Uacute
ENCODING 218
SWIDTH 759 0
DWIDTH 14 0
BBX 13 16 2 0
BITMAP
01e0
0380
0000
3818
3818
3818
3818
7030
7030
7030
7060
e060
e0e0
f1c0
7f80
3e00
ENDCHAR
STARTCHAR Udoubleacute
ENCODING 219
SWIDTH 759 0
DWIDTH 14 0
BBX 13 17 2 0
BITMAP
0120
0360
0240
0000
3818
3818
3818
3818
7030
7030
7030
7060
e060
e0e0
f1c0
7f80
3e00
ENDCHAR
STARTCHAR Udiaeresis
ENCODING 220
SWIDTH 759 0
DWIDTH 14 0
BBX 13 16 2 0
BITMAP
0660
0660
0000
3818
3818
3818
3818
7030
7030
7030
7060
e060
e0e0
f1c0
7f80
3e00
ENDCHAR
STARTCHAR Yacute
ENCODING 221
SWIDTH 681 0
DWIDTH 12 0
BBX 11 16 3 0
BITMAP
0780
0e00
0000
e0e0
e0e0
e1c0
f380
7300
7600
3c00
3800
3800
7000
7000
7000
7000
ENDCHAR
STARTCHAR Tcedilla
ENCODING 222
SWIDTH 747 0
DWIDTH 14 0
BBX 13 16 2 -3
BITMAP
fff8
fff8
0700
0700
0e00
0e00
0e00
0e00
1c00
1c00
1c00
1c00
1c00
0700
0380
0f00
ENDCHAR
STARTCHAR ssharp
ENCODING 223
SWIDTH 708 0
DWIDTH 13 0
BBX 13 17 0 -3
BITMAP
01f0
07f8
0738
0e38
0e30
1c60
1dc0
1de0
38f0
3870
3870
7070
73e0
73c0
e000
e000
e000
ENDCHAR
STARTCHAR racute
ENCODING 224
SWIDTH 542 0
DWIDTH 10 0
BBX 9 13 1 0
BITMAP
0780
0e00
0000
3980
3b80
3f80
7c00
7800
7000
7000
e000
e000
e000
ENDCHAR
STARTCHAR aacute
ENCODING 225
SWIDTH 681 0
DWIDTH 13 0
BBX 12 13 1 0
BITMAP
01e0
0380
0000
07f0
1ff0
3870
70e0
70e0
e1e0
e3c0
e7c0
fdc0
79c0
ENDCHAR
STARTCHAR acircumflex
ENCODING 226
SWIDTH 681 0
DWIDTH 13 0
BBX 12 13 1 0
BITMAP
0380
06c0
0000
07f0
1ff0
3870
70e0
70e0
e1e0
e3c0
e7c0
fdc0
79c0
ENDCHAR
STARTCHAR abreve
ENCODING 227
SWIDTH 681 0
DWIDTH 13 0
BBX 12 14 1 0
BITMAP
0440
07c0
0380
0000
07f0
1ff0
3870
70e0
70e0
e1e0
e3c0
e7c0
fdc0
79c0
ENDCHAR
STARTCHAR adiaeresis
ENCODING 228
SWIDTH 681 0
DWIDTH 13 0
BBX 12 13 1 0
BITMAP
0660
0660
0000
07f0
1ff0
3870
70e0
70e0
e1e0
e3c0
e7c0
fdc0
79c0
ENDCHAR
STARTCHAR lacute
ENCODING 229
SWIDTH 343 0
DWIDTH 6 0
BBX 8 17 1 0
BITMAP
0f
1c
00
1c
1c
1c
1c
38
38
38
70
70
70
70
e0
e0
e0
ENDCHAR
STARTCHAR cacute
ENCODING 230
SWIDTH 548 0
DWIDTH 11 0
BBX 10 13 1 0
BITMAP
03c0
0700
0000
0780
1fc0
38c0
7000
7000
e000
e000
e180
ff80
7e00
ENDCHAR
STARTCHAR ccedilla
ENCODING 231
SWIDTH 548 0
DWIDTH 11 0
BBX 10 13 1 -3
BITMAP
0780
1fc0
38c0
7000
7000
e000
e000
e180
ff80
7e00
3800
1c00
7800
ENDCHAR
STARTCHAR ccaron
ENCODING 232
SWIDTH 548 0
DWIDTH 11 0
BBX 10 13 1 0
BITMAP
0d80
0700
0000
0780
1fc0
38c0
7000
7000
e000
e000
e180
ff80
7e00
ENDCHAR
STARTCHAR eacute
ENCODING 233
SWIDTH 612 0
DWIDTH 11 0
BBX 10 13 1 0
BITMAP
03c0
0700
0000
0780
1fc0
39c0
71c0
7f80
fe00
e000
e180
ff80
7e00
ENDCHAR
STARTCHAR eogonek
ENCODING 234
SWIDTH 612 0
DWIDTH 11 0
BBX 10 13 1 -3
BITMAP
0780
1fc0
39c0
71c0
7f80
fe00
e000
e180
ff80
7e00
1c00
3800
1e00
ENDCHAR
STARTCHAR ediaeresis
ENCODING 235
SWIDTH 612 0
DWIDTH 11 0
BBX 10 13 1 0
BITMAP
1980
1980
0000
0780
1fc0
39c0
71c0
7f80
fe00
e000
e180
ff80
7e00
ENDCHAR
STARTCHAR ecaron
ENCODING 236
SWIDTH 612 0
DWIDTH 11 0
BBX 10 13 1 0
BITMAP
0d80
0700
0000
0780
1fc0
39c0
71c0
7f80
fe00
e000
e180
ff80
7e00
ENDCHAR
STARTCHAR iacute
ENCODING 237
SWIDTH 343 0
DWIDTH 6 0
BBX 7 13 1 0
BITMAP
1e
38
00
38
38
38
70
70
70
70
e0
e0
e0
ENDCHAR
STARTCHAR icircumflex
ENCODING 238
SWIDTH 343 0
DWIDTH 6 0
BBX 6 13 1 0
BITMAP
38
6c
00
38
38
38
70
70
70
70
e0
e0
e0
ENDCHAR
STARTCHAR dcaron
ENCODING 239
SWIDTH 1000 0
DWIDTH 18 0
BBX 18 15 1 0
BITMAP
0001c0
0039c0
003980
003b00
003800
07f000
1ff000
387000
70e000
70e000
e1e000
e3c000
e7c000
fdc000
79c000
ENDCHAR
STARTCHAR dstroke
ENCODING 240
SWIDTH 888 0
DWIDTH 16 0
BBX 16 14 1 0
BITMAP
0038
01ff
0038
0038
07f0
1ff0
3870
70e0
70e0
e1e0
e3c0
e7c0
fdc0
79c0
ENDCHAR
STARTCHAR nacute
ENCODING 241
SWIDTH 675 0
DWIDTH 13 0
BBX 12 13 1 0
BITMAP
01e0
0380
0000
39e0
3bf0
3e70
3c70
78e0
70e0
70e0
e1c0
e1c0
e1c0
ENDCHAR
STARTCHAR ncaron
ENCODING 242
SWIDTH 675 0
DWIDTH 13 0
BBX 12 13 1 0
BITMAP
06c0
0380
0000
39e0
3bf0
3e70
3c70
78e0
70e0
70e0
e1c0
e1c0
e1c0
ENDCHAR
STARTCHAR oacute
ENCODING 243
SWIDTH 663 0
DWIDTH 12 0
BBX 11 13 1 0
BITMAP
03c0
0700
0000
07c0
1fe0
38e0
70e0
70e0
e1c0
e1c0
e380
ff00
7c00
ENDCHAR
STARTCHAR ocircumflex
ENCODING 244
SWIDTH 663 0
DWIDTH 12 0
BBX 11 13 1 0
BITMAP
0380
06c0
0000
07c0
1fe0
38e0
70e0
70e0
e1c0
e1c0
e380
ff00
7c00
ENDCHAR
STARTCHAR odoubleacute
ENCODING 245
SWIDTH 663 0
DWIDTH 12 0
BBX 11 14 1 0
BITMAP
0120
0360
0240
0000
07c0
1fe0
38e0
70e0
70e0
e1c0
e1c0
e380
ff00
7c00
ENDCHAR
STARTCHAR odiaeresis
ENCODING 246
SWIDTH 663 0
DWIDTH 12 0
BBX 11 13 1 0
BITMAP
0cc0
0cc0
0000
07c0
1fe0
38e0
70e0
70e0
e1c0
e1c0
e380
ff00
7c00
ENDCHAR
STARTCHAR division
ENCODING 247
SWIDTH 687 0
DWIDTH 13 0
BBX 10 12 2 0
BITMAP
0600
0600
0600
0000
0000
ffc0
ffc0
0000
0000
1800
1800
1800
ENDCHAR
STARTCHAR rcaron
ENCODING 248
SWIDTH 542 0
DWIDTH 10 0
BBX 9 13 1 0
BITMAP
1b00
0e00
0000
3980
3b80
3f80
7c00
7800
7000
7000
e000
e000
e000
ENDCHAR
STARTCHAR uring
ENCODING 249
SWIDTH 675 0
DWIDTH 13 0
BBX 12 14 1 0
BITMAP
0380
06c0
0380
0000
3870
3870
3870
70e0
70e0
71e0
e3c0
e7c0
fdc0
79c0
ENDCHAR
STARTCHAR uacute
ENCODING 250
SWIDTH 675 0
DWIDTH 13 0
BBX 12 13 1 0
BITMAP
01e0
0380
0000
3870
3870
3870
70e0
70e0
71e0
e3c0
e7c0
fdc0
79c0
ENDCHAR
STARTCHAR udoubleacute
ENCODING 251
SWIDTH 675 0
DWIDTH 13 0
BBX 12 14 1 0
BITMAP
0120
0360
0240
0000
3870
3870
3870
70e0
70e0
71e0
e3c0
e7c0
fdc0
79c0
ENDCHAR
STARTCHAR udiaeresis
ENCODING 252
SWIDTH 675 0
DWIDTH 13 0
BBX 12 13 1 0
BITMAP
0cc0
0cc0
0000
3870
3870
3870
70e0
70e0
71e0
e3c0
e7c0
fdc0
79c0
ENDCHAR
STARTCHAR yacute
ENCODING 253
SWIDTH 633 0
DWIDTH 12 0
BBX 13 16 0 -3
BITMAP
00f0
01c0
0000
1c38
1c38
1c70
1c60
1ce0
1cc0
1d80
1f00
1e00
1c00
3800
f000
e000
ENDCHAR
STARTCHAR tcedilla
ENCODING 254
SWIDTH 437 0
DWIDTH 8 0
BBX 7 15 2 -3
BITMAP
18
38
fe
fe
70
70
70
e0
e0
e0
f8
78
38
1c
78
ENDCHAR
STARTCHAR abovedot
ENCODING 255
SWIDTH 663 0
DWIDTH 12 0
BBX 3 2 7 11
BITMAP
e0
e0
ENDCHAR
ENDFONT
